<svg width="1924" height="220" viewBox="0 0 1924 220" fill="none" xmlns="http://www.w3.org/2000/svg">
<rect x="1" y="1" width="1920" height="62" fill="#237F8A"/>
<rect x="1" y="1" width="1920" height="62" stroke="#237F8A" stroke-width="2" stroke-linejoin="bevel"/>
<path fill-rule="evenodd" clip-rule="evenodd" d="M1.23905 166.642L81.5247 149.602C161.81 132.561 322.379 97.4775 483.025 95.4311C640.321 92.3845 801.036 120.371 961.747 146.356C1122.46 172.341 1283.16 195.322 1443.84 206.29C1601.17 218.26 1761.82 218.216 1842.14 218.194L1922.47 218.172L1922.11 62.9999L1841.78 63.0219C1761.46 63.044 1600.81 63.0882 1443.5 63.1315C1282.85 63.1757 1122.2 63.2198 961.554 63.264C800.904 63.3082 640.254 63.3524 482.95 63.3956C322.3 63.4398 161.65 63.484 81.3249 63.5061L0.999756 63.5282L1.23905 166.642Z" fill="#237F8A" stroke="#237F8A" stroke-width="2"/>
</svg>
