<svg width="374" height="102" viewBox="0 0 374 102" fill="none" xmlns="http://www.w3.org/2000/svg">
<rect width="372.356" height="29.5864" transform="translate(0.75)" fill="#237F8A"/>
<path fill-rule="evenodd" clip-rule="evenodd" d="M0.862901 76.5131L16.4138 68.1808C31.9648 59.8485 63.0657 42.6939 94.1996 41.7136C124.684 40.2432 155.848 53.9669 187.01 66.7104C218.172 79.4539 249.331 90.7269 280.478 96.1184C310.977 102 342.113 102 357.681 102H373.249L373.094 26.0293H357.526C341.958 26.0293 310.822 26.0293 280.335 26.0293C249.199 26.0293 218.063 26.0293 186.927 26.0293C155.791 26.0293 124.655 26.0293 94.1676 26.0293C63.0316 26.0293 31.8956 26.0293 16.3276 26.0293H0.759627L0.862901 76.5131Z" fill="#237F8A"/>
</svg>
