<svg width="517" height="142" viewBox="0 0 517 142" fill="none" xmlns="http://www.w3.org/2000/svg">
<rect width="516" height="41" fill="#237F8A"/>
<path fill-rule="evenodd" clip-rule="evenodd" d="M0.15724 106.03L21.7073 94.4829C43.2573 82.9363 86.3561 59.1639 129.501 57.8054C171.745 55.7678 214.931 74.7858 258.115 92.4453C301.298 110.105 344.477 125.727 387.64 133.198C429.905 141.349 473.052 141.349 494.626 141.349H516.2L515.984 36.0706H494.411C472.837 36.0706 429.69 36.0706 387.441 36.0706C344.294 36.0706 301.147 36.0706 257.999 36.0706C214.852 36.0706 171.705 36.0706 129.456 36.0706C86.3088 36.0706 43.1615 36.0706 21.5878 36.0706H0.014126L0.15724 106.03Z" fill="#237F8A"/>
</svg>
